<?xml version="1.0" encoding="UTF-8" standalone="no"?>
<svg width="169px" height="52px" viewBox="0 0 169 52" version="1.1" xmlns="http://www.w3.org/2000/svg" xmlns:xlink="http://www.w3.org/1999/xlink" xmlns:sketch="http://www.bohemiancoding.com/sketch/ns">
    <!-- Generator: Sketch 3.4 (15575) - http://www.bohemiancoding.com/sketch -->
    <title>appstore icon</title>
    <desc>link to funa app store page</desc>
    <defs></defs>
    <g id="Page-1" stroke="none" stroke-width="1" fill="none" fill-rule="evenodd" sketch:type="MSPage">
        <g id="appstore" sketch:type="MSLayerGroup">
            <rect id="background" fill="#000000" sketch:type="MSShapeGroup" x="0" y="0" width="169" height="51.8181818" rx="5.2"></rect>
            <g id="icon" transform="translate(10.400000, 7.772727)" fill="#FFFFFF" sketch:type="MSShapeGroup">
                <path d="M18.41805,5.41249091 C19.544,3.98863636 20.3644,2.02977273 20.15265,0.0546 C18.47055,0.117354545 16.4675,1.17850909 15.27435,2.61158182 C14.1995,3.84610909 13.2664,5.88226364 13.5338,7.79787273 C15.3622,7.92054545 17.2417,6.84591818 18.41805,5.41249091" id="Fill-1"></path>
                <path d="M23.28865,20.9791636 L23.2617,20.9263364 C22.73775,19.8573818 22.49905,18.1864091 22.6996,16.8327545 L22.6996,16.7824091 L22.701,16.7824091 C22.911,15.0096818 24.038,13.1958273 24.9389,12.5377909 C24.94975,12.5299909 24.962,12.5207727 24.97425,12.5108455 L24.97425,12.5069455 L24.9767,12.5069455 C25.17655,12.2835818 25.746,11.8205455 26.13065,11.5397455 C24.71,9.4224 22.3839,8.28040909 20.0151,8.24353636 C17.62635,8.04038182 15.1473,9.77517273 13.81065,9.73546364 C12.5174,9.77517273 10.5637,8.2095 8.5022,8.30841818 L8.4819,8.30522727 C8.4357,8.30522727 8.06435,8.32614545 8.06435,8.32614545 C5.3319,8.39421818 2.90955,10.0254818 1.53405,12.4987909 L1.53405,12.5069455 L1.52565,12.5069455 L1.52565,12.4987909 C0.9814,13.3901182 0.32865,15.4677545 0.23135,16.7824091 L0.23135,16.8522545 C0.09975,17.6865 0.2268,19.9098545 0.37485,20.9791636 C0.38115,20.9979545 0.38255,21.0171 0.38395,21.0323455 L0.3871,21.0302182 C0.5026,22.0959818 1.0367,24.1555364 1.43745,25.1624455 L1.43745,25.1713091 L1.43535,25.1713091 C1.81965,26.2842273 2.89415,28.3714364 3.5875,29.4382636 L3.5875,29.4460636 L3.59485,29.4460636 C4.99555,31.4832818 6.6444,33.7725818 8.81825,33.6740182 C10.91825,33.5931818 11.6914,32.2608 14.22085,32.2817182 C16.7489,32.2608 17.44855,33.6105545 19.66405,33.6201273 C21.9226,33.5219182 23.32225,31.4861182 24.72365,29.4460636 C25.40965,28.3948364 26.4859,26.3721545 26.86635,25.1713091 L26.8716,25.1713091 C26.9143,25.0447364 26.97835,24.8493818 27.0235,24.7075636 C25.5381,24.2806909 23.87175,22.2991364 23.28865,20.9791636" id="Fill-3"></path>
            </g>
            <g id="download-on-the-app-store" transform="translate(50.700000, 8.181818)" fill="#FFFFFF" sketch:type="MSShapeGroup">
                <path d="M0.988,9.974 C1.56,10.039 2.236,10.078 3.042,10.078 C4.745,10.078 6.097,9.636 6.916,8.817 C7.735,8.011 8.177,6.841 8.177,5.411 C8.177,3.994 7.722,2.98 6.942,2.265 C6.175,1.55 5.018,1.173 3.393,1.173 C2.496,1.173 1.677,1.251 0.988,1.355 L0.988,9.974 Z M2.119,2.187 C2.418,2.122 2.86,2.07 3.445,2.07 C5.837,2.07 7.007,3.383 6.994,5.45 C6.994,7.816 5.681,9.168 3.263,9.168 C2.821,9.168 2.405,9.155 2.119,9.103 L2.119,2.187 Z M12.324,3.565 C10.582,3.565 9.204,4.8 9.204,6.906 C9.204,8.895 10.517,10.143 12.22,10.143 C13.741,10.143 15.353,9.129 15.353,6.802 C15.353,4.878 14.131,3.565 12.324,3.565 L12.324,3.565 Z M12.298,4.423 C13.65,4.423 14.183,5.775 14.183,6.841 C14.183,8.258 13.364,9.285 12.272,9.285 C11.154,9.285 10.361,8.245 10.361,6.867 C10.361,5.671 10.946,4.423 12.298,4.423 L12.298,4.423 Z M15.99,3.708 L17.888,10 L18.928,10 L19.942,7.01 C20.163,6.334 20.358,5.684 20.514,4.93 L20.54,4.93 C20.696,5.671 20.878,6.295 21.099,6.997 L22.061,10 L23.101,10 L25.129,3.708 L23.998,3.708 L23.101,6.867 C22.893,7.608 22.724,8.271 22.62,8.908 L22.581,8.908 C22.438,8.271 22.256,7.608 22.022,6.854 L21.047,3.708 L20.085,3.708 L19.058,6.919 C18.85,7.595 18.642,8.271 18.499,8.908 L18.46,8.908 C18.343,8.258 18.174,7.608 17.992,6.906 L17.16,3.708 L15.99,3.708 Z M26.273,10 L27.417,10 L27.417,6.217 C27.417,6.022 27.443,5.827 27.495,5.684 C27.69,5.047 28.275,4.514 29.029,4.514 C30.108,4.514 30.485,5.359 30.485,6.373 L30.485,10 L31.629,10 L31.629,6.243 C31.629,4.085 30.277,3.565 29.406,3.565 C28.366,3.565 27.638,4.15 27.326,4.748 L27.3,4.748 L27.235,3.708 L26.221,3.708 C26.26,4.228 26.273,4.761 26.273,5.411 L26.273,10 Z M33.488,10 L34.632,10 L34.632,0.77 L33.488,0.77 L33.488,10 Z M39.221,3.565 C37.479,3.565 36.101,4.8 36.101,6.906 C36.101,8.895 37.414,10.143 39.117,10.143 C40.638,10.143 42.25,9.129 42.25,6.802 C42.25,4.878 41.028,3.565 39.221,3.565 L39.221,3.565 Z M39.195,4.423 C40.547,4.423 41.08,5.775 41.08,6.841 C41.08,8.258 40.261,9.285 39.169,9.285 C38.051,9.285 37.258,8.245 37.258,6.867 C37.258,5.671 37.843,4.423 39.195,4.423 L39.195,4.423 Z M48.217,10 C48.139,9.571 48.113,9.038 48.113,8.492 L48.113,6.139 C48.113,4.878 47.645,3.565 45.721,3.565 C44.928,3.565 44.174,3.786 43.654,4.124 L43.914,4.878 C44.356,4.592 44.967,4.41 45.552,4.41 C46.839,4.41 46.982,5.346 46.982,5.866 L46.982,5.996 C44.551,5.983 43.199,6.815 43.199,8.336 C43.199,9.246 43.849,10.143 45.123,10.143 C46.02,10.143 46.696,9.701 47.047,9.207 L47.086,9.207 L47.177,10 L48.217,10 Z M47.008,7.881 C47.008,7.998 46.982,8.128 46.943,8.245 C46.761,8.778 46.241,9.298 45.422,9.298 C44.837,9.298 44.343,8.947 44.343,8.206 C44.343,6.984 45.76,6.763 47.008,6.789 L47.008,7.881 Z M54.249,0.77 L54.249,4.527 L54.223,4.527 C53.937,4.02 53.287,3.565 52.325,3.565 C50.791,3.565 49.491,4.852 49.504,6.945 C49.504,8.856 50.674,10.143 52.195,10.143 C53.222,10.143 53.989,9.61 54.34,8.908 L54.366,8.908 L54.418,10 L55.445,10 C55.406,9.571 55.393,8.934 55.393,8.375 L55.393,0.77 L54.249,0.77 Z M54.249,7.361 C54.249,7.543 54.236,7.699 54.197,7.855 C53.989,8.713 53.287,9.22 52.52,9.22 C51.285,9.22 50.661,8.167 50.661,6.893 C50.661,5.502 51.363,4.462 52.546,4.462 C53.404,4.462 54.028,5.06 54.197,5.788 C54.236,5.931 54.249,6.126 54.249,6.269 L54.249,7.361 Z M62.712,3.565 C60.97,3.565 59.592,4.8 59.592,6.906 C59.592,8.895 60.905,10.143 62.608,10.143 C64.129,10.143 65.741,9.129 65.741,6.802 C65.741,4.878 64.519,3.565 62.712,3.565 L62.712,3.565 Z M62.686,4.423 C64.038,4.423 64.571,5.775 64.571,6.841 C64.571,8.258 63.752,9.285 62.66,9.285 C61.542,9.285 60.749,8.245 60.749,6.867 C60.749,5.671 61.334,4.423 62.686,4.423 L62.686,4.423 Z M67.184,10 L68.328,10 L68.328,6.217 C68.328,6.022 68.354,5.827 68.406,5.684 C68.601,5.047 69.186,4.514 69.94,4.514 C71.019,4.514 71.396,5.359 71.396,6.373 L71.396,10 L72.54,10 L72.54,6.243 C72.54,4.085 71.188,3.565 70.317,3.565 C69.277,3.565 68.549,4.15 68.237,4.748 L68.211,4.748 L68.146,3.708 L67.132,3.708 C67.171,4.228 67.184,4.761 67.184,5.411 L67.184,10 Z M77.415,2.2 L77.415,3.708 L76.44,3.708 L76.44,4.579 L77.415,4.579 L77.415,8.011 C77.415,8.752 77.532,9.311 77.857,9.649 C78.13,9.961 78.559,10.13 79.092,10.13 C79.534,10.13 79.885,10.065 80.106,9.974 L80.054,9.116 C79.911,9.155 79.69,9.194 79.391,9.194 C78.754,9.194 78.533,8.752 78.533,7.972 L78.533,4.579 L80.171,4.579 L80.171,3.708 L78.533,3.708 L78.533,1.901 L77.415,2.2 Z M81.458,10 L82.602,10 L82.602,6.204 C82.602,5.983 82.615,5.814 82.68,5.658 C82.888,5.034 83.473,4.514 84.214,4.514 C85.293,4.514 85.67,5.372 85.67,6.386 L85.67,10 L86.814,10 L86.814,6.256 C86.814,4.085 85.462,3.565 84.617,3.565 C84.188,3.565 83.785,3.695 83.447,3.89 C83.096,4.085 82.81,4.371 82.628,4.696 L82.602,4.696 L82.602,0.77 L81.458,0.77 L81.458,10 Z M93.73,7.062 C93.743,6.945 93.769,6.763 93.769,6.529 C93.769,5.372 93.223,3.565 91.169,3.565 C89.336,3.565 88.218,5.06 88.218,6.958 C88.218,8.856 89.375,10.13 91.312,10.13 C92.313,10.13 93.002,9.922 93.405,9.74 L93.21,8.921 C92.781,9.103 92.287,9.246 91.468,9.246 C90.324,9.246 89.336,8.609 89.31,7.062 L93.73,7.062 Z M89.323,6.243 C89.414,5.45 89.921,4.384 91.078,4.384 C92.365,4.384 92.677,5.515 92.664,6.243 L89.323,6.243 Z M9.828,27.2306053 L11.2554,31.7000053 L14.3442,31.7000053 L9.2196,15.9284053 L5.5458,15.9284053 L0.4914,31.7000053 L3.4632,31.7000053 L4.8204,27.2306053 L9.828,27.2306053 Z M5.2884,25.0544053 L6.5052,21.1700053 C6.786,20.2340053 7.02,19.1342053 7.254,18.2216053 L7.3008,18.2216053 C7.5348,19.1342053 7.7922,20.2106053 8.0964,21.1700053 L9.3366,25.0544053 L5.2884,25.0544053 Z M16.3098,36.3332053 L19.188,36.3332053 L19.188,30.4364053 L19.2348,30.4364053 C19.8198,31.3490053 21.0132,31.9574053 22.4406,31.9574053 C25.038,31.9574053 27.6354,29.9684053 27.6354,25.8500053 C27.6354,22.2932053 25.4592,20.0468053 22.8384,20.0468053 C21.1068,20.0468053 19.773,20.7722053 18.9306,22.0592053 L18.8838,22.0592053 L18.7434,20.3042053 L16.2162,20.3042053 C16.263,21.3806053 16.3098,22.5974053 16.3098,24.0950053 L16.3098,36.3332053 Z M19.188,25.1714053 C19.188,24.9374053 19.2348,24.6800053 19.305,24.4460053 C19.5858,23.1824053 20.6856,22.3166053 21.879,22.3166053 C23.7276,22.3166053 24.7104,23.9546053 24.7104,25.9670053 C24.7104,28.2134053 23.634,29.7344053 21.8088,29.7344053 C20.592,29.7344053 19.5624,28.8920053 19.2816,27.7220053 C19.2114,27.4646053 19.188,27.2072053 19.188,26.9264053 L19.188,25.1714053 Z M29.9988,36.3332053 L32.877,36.3332053 L32.877,30.4364053 L32.9238,30.4364053 C33.5088,31.3490053 34.7022,31.9574053 36.1296,31.9574053 C38.727,31.9574053 41.3244,29.9684053 41.3244,25.8500053 C41.3244,22.2932053 39.1482,20.0468053 36.5274,20.0468053 C34.7958,20.0468053 33.462,20.7722053 32.6196,22.0592053 L32.5728,22.0592053 L32.4324,20.3042053 L29.9052,20.3042053 C29.952,21.3806053 29.9988,22.5974053 29.9988,24.0950053 L29.9988,36.3332053 Z M32.877,25.1714053 C32.877,24.9374053 32.9238,24.6800053 32.994,24.4460053 C33.2748,23.1824053 34.3746,22.3166053 35.568,22.3166053 C37.4166,22.3166053 38.3994,23.9546053 38.3994,25.9670053 C38.3994,28.2134053 37.323,29.7344053 35.4978,29.7344053 C34.281,29.7344053 33.2514,28.8920053 32.9706,27.7220053 C32.9004,27.4646053 32.877,27.2072053 32.877,26.9264053 L32.877,25.1714053 Z M47.9466,30.9512053 C48.8124,31.4660053 50.544,31.9340053 52.2054,31.9340053 C56.277,31.9340053 58.1958,29.7344053 58.1958,27.2072053 C58.1958,24.9374053 56.862,23.5568053 54.1242,22.5272053 C52.0182,21.7082053 51.1056,21.1466053 51.1056,19.9298053 C51.1056,19.0172053 51.9012,18.0344053 53.7264,18.0344053 C55.2006,18.0344053 56.3004,18.4790053 56.862,18.7832053 L57.564,16.4666053 C56.745,16.0454053 55.4814,15.6710053 53.7732,15.6710053 C50.3568,15.6710053 48.204,17.6366053 48.204,20.2106053 C48.204,22.4804053 49.8654,23.8610053 52.4628,24.7970053 C54.4752,25.5224053 55.2708,26.2244053 55.2708,27.4178053 C55.2708,28.7048053 54.2412,29.5706053 52.3926,29.5706053 C50.9184,29.5706053 49.5144,29.1026053 48.5784,28.5644053 L47.9466,30.9512053 Z M61.074,17.7302053 L61.074,20.3042053 L59.436,20.3042053 L59.436,22.4570053 L61.074,22.4570053 L61.074,27.8156053 C61.074,29.3132053 61.3548,30.3428053 61.9632,30.9980053 C62.5014,31.5830053 63.3906,31.9340053 64.4436,31.9340053 C65.3562,31.9340053 66.105,31.8170053 66.5262,31.6532053 L66.4794,29.4536053 C66.222,29.5238053 65.8476,29.5940053 65.3562,29.5940053 C64.2564,29.5940053 63.882,28.8686053 63.882,27.4880053 L63.882,22.4570053 L66.6198,22.4570053 L66.6198,20.3042053 L63.882,20.3042053 L63.882,17.0516053 L61.074,17.7302053 Z M73.827,20.0468053 C70.3872,20.0468053 67.9302,22.3400053 67.9302,26.0840053 C67.9302,29.7344053 70.4106,31.9574053 73.6398,31.9574053 C76.5414,31.9574053 79.4898,30.0854053 79.4898,25.8968053 C79.4898,22.4336053 77.22,20.0468053 73.827,20.0468053 L73.827,20.0468053 Z M73.7568,22.1528053 C75.7224,22.1528053 76.518,24.1886053 76.518,25.9670053 C76.518,28.2602053 75.3714,29.8748053 73.7334,29.8748053 C71.9784,29.8748053 70.902,28.2134053 70.902,26.0138053 C70.902,24.1184053 71.721,22.1528053 73.7568,22.1528053 L73.7568,22.1528053 Z M81.8532,31.7000053 L84.7314,31.7000053 L84.7314,25.8032053 C84.7314,25.4756053 84.7782,25.1714053 84.825,24.9140053 C85.0824,23.6270053 86.0184,22.7378053 87.399,22.7378053 C87.75,22.7378053 88.0074,22.7846053 88.2414,22.8314053 L88.2414,20.1170053 C88.0074,20.0702053 87.8436,20.0468053 87.5628,20.0468053 C86.346,20.0468053 85.0122,20.8658053 84.4506,22.4804053 L84.357,22.4804053 L84.2634,20.3042053 L81.7596,20.3042053 C81.8298,21.3338053 81.8532,22.4336053 81.8532,23.9780053 L81.8532,31.7000053 Z M99.6372,26.8094053 C99.684,26.5520053 99.7308,26.1308053 99.7308,25.5926053 C99.7308,23.0888053 98.514,20.0468053 94.8168,20.0468053 C91.1664,20.0468053 89.2476,23.0186053 89.2476,26.1776053 C89.2476,29.6642053 91.4238,31.9340053 95.121,31.9340053 C96.759,31.9340053 98.1162,31.6298053 99.099,31.2320053 L98.6778,29.2430053 C97.812,29.5706053 96.8526,29.7578053 95.5188,29.7578053 C93.6936,29.7578053 92.079,28.8686053 92.0088,26.8094053 L99.6372,26.8094053 Z M92.0088,24.7970053 C92.1258,23.6270053 92.8746,22.0124053 94.653,22.0124053 C96.5718,22.0124053 97.0398,23.7440053 97.0164,24.7970053 L92.0088,24.7970053 Z" id="Download-on-the"></path>
            </g>
        </g>
    </g>
</svg>