<?xml version="1.0" encoding="UTF-8" standalone="no"?>
<svg width="52px" height="60px" viewBox="0 0 52 60" version="1.1" xmlns="http://www.w3.org/2000/svg" xmlns:xlink="http://www.w3.org/1999/xlink" xmlns:sketch="http://www.bohemiancoding.com/sketch/ns">
    <!-- Generator: Sketch 3.4.2 (15857) - http://www.bohemiancoding.com/sketch -->
    <title>bell</title>
    <desc>Created with Sketch.</desc>
    <defs></defs>
    <g id="Page-1" stroke="none" stroke-width="1" fill="none" fill-rule="evenodd" sketch:type="MSPage">
        <g id="bell" sketch:type="MSLayerGroup" transform="translate(-4.000000, 0.000000)">
            <path d="M29.5294118,60 C32.8294118,60 35.5294118,57.3 35.5294118,54 L23.5294118,54 C23.5294118,57.3 26.2294118,60 29.5294118,60 L29.5294118,60 Z M49.0294118,42 L49.0294118,25.5 C49.0294118,16.2 42.7294118,8.7 34.0294118,6.6 L34.0294118,4.5 C34.0294118,2.1 31.9294118,0 29.5294118,0 C27.1294118,0 25.0294118,2.1 25.0294118,4.5 L25.0294118,6.6 C16.3294118,8.7 10.0294118,16.2 10.0294118,25.5 L10.0294118,42 L4.02941176,48 L4.02941176,51 L55.0294118,51 L55.0294118,48 L49.0294118,42 L49.0294118,42 Z M43.0294118,45 L16.0294118,45 L16.0294118,25.5 C16.0294118,18 22.0294118,12 29.5294118,12 C37.0294118,12 43.0294118,18 43.0294118,25.5 L43.0294118,45 L43.0294118,45 Z" id="Shape" fill="#27CAA6" sketch:type="MSShapeGroup"></path>
            <rect id="bound" sketch:type="MSShapeGroup" x="0" y="0" width="60" height="60"></rect>
        </g>
    </g>
</svg>