<?xml version="1.0" encoding="UTF-8" standalone="no"?>
<svg width="60px" height="60px" viewBox="0 0 58 58" version="1.1" xmlns="http://www.w3.org/2000/svg" xmlns:xlink="http://www.w3.org/1999/xlink" xmlns:sketch="http://www.bohemiancoding.com/sketch/ns">
    <!-- Generator: Sketch 3.4.2 (15857) - http://www.bohemiancoding.com/sketch -->
    <title>buoy</title>
    <desc>Created with Sketch.</desc>
    <defs></defs>
    <g id="Page-1" stroke="none" stroke-width="1" fill="none" fill-rule="evenodd" sketch:type="MSPage">
        <g id="buoy" sketch:type="MSLayerGroup" transform="translate(-1.000000, -1.000000)">
            <path d="M50.5750876,9.56291602 C39.2905699,-1.79888026 20.9313791,-1.8632791 9.56406295,9.4249185 C-1.80141327,20.7112761 -1.86029221,39.0704669 9.42238549,50.4359432 C20.7105831,61.7995794 39.0697739,61.8621383 50.4370901,50.5757807 C61.8007263,39.289423 61.8614452,20.9302322 50.5750876,9.56291602 L50.5750876,9.56291602 Z M42.5620313,8.21790014 L36.4110216,14.3265906 C32.3483744,12.6669404 27.7705365,12.6503807 23.6968495,14.2824314 L17.5881591,8.13142169 C25.3178605,3.75046024 34.8617694,3.78173968 42.5620313,8.21790014 L42.5620313,8.21790014 Z M14.2872583,36.3031566 L8.13624855,42.4100071 C3.75160716,34.6803057 3.78472657,25.1363968 8.222727,17.4361349 L14.3332574,23.5871446 C12.6699273,27.6479518 12.6552075,32.2276296 14.2872583,36.3031566 L14.2872583,36.3031566 Z M17.4391217,51.780959 L23.5919714,45.6722686 C27.6527786,47.3300789 32.2324565,47.3484785 36.3043035,45.7145878 L42.412994,51.8674375 C34.6851325,56.2483989 25.1375437,56.2171195 17.4391217,51.780959 L17.4391217,51.780959 Z M39.2280111,39.293103 C34.1037029,44.3824517 25.7944119,44.3530122 20.7032232,39.2287041 C15.6138745,34.104396 15.6433139,25.795105 20.769462,20.7057562 C25.8956101,15.6164075 34.2030612,15.644007 39.2924099,20.7683151 C44.3835986,25.8926232 44.3541592,34.2019142 39.2280111,39.293103 L39.2280111,39.293103 Z M45.6678956,36.4098747 C47.3275458,32.3472275 47.3459455,27.7693896 45.7120548,23.6957026 L51.8630645,17.5870121 C56.2458659,25.3148736 56.2145865,34.8606224 51.7765861,42.5608844 L45.6678956,36.4098747 L45.6678956,36.4098747 Z" id="Shape" fill="#27CAA6" sketch:type="MSShapeGroup"></path>
            <rect id="bound" sketch:type="MSShapeGroup" x="0" y="0" width="60" height="60"></rect>
        </g>
    </g>
</svg>