<?xml version="1.0" encoding="UTF-8" standalone="no"?>
<svg width="60px" height="60px" viewBox="0 0 60 60" version="1.1" xmlns="http://www.w3.org/2000/svg" xmlns:xlink="http://www.w3.org/1999/xlink" xmlns:sketch="http://www.bohemiancoding.com/sketch/ns">
    <!-- Generator: Sketch 3.4.2 (15857) - http://www.bohemiancoding.com/sketch -->
    <title>connected</title>
    <desc>Created with Sketch.</desc>
    <defs></defs>
    <g id="Page-1" stroke="none" stroke-width="1" fill="none" fill-rule="evenodd" sketch:type="MSPage">
        <g id="connected" sketch:type="MSLayerGroup">
            <path d="M33.0979951,13.883912 C34.9596088,12.5976528 36.2133007,10.2146699 36.2133007,7.49149144 C36.2133007,3.80493888 35.467335,0.0362347188 29.9347188,0.0362347188 C24.4021027,0.0362347188 23.6561369,3.80493888 23.6561369,7.49149144 C23.6561369,10.2146699 24.9098289,12.5976528 26.7714425,13.883912 C22.6525672,15.1197066 19.6656235,18.6984352 19.6656235,22.9116381 C19.6656235,25.0836675 20.7718826,26.6260636 22.9534474,27.4958435 C24.5504156,28.1325183 26.768802,28.4289976 29.9345721,28.4289976 C33.100489,28.4289976 35.3187286,28.1325183 36.9156968,27.4958435 C39.0972616,26.6260636 40.2035208,25.0838142 40.2035208,22.9116381 C40.2038142,18.6985819 37.2168704,15.1197066 33.0979951,13.883912 L33.0979951,13.883912 Z" id="Shape" fill="#27CAA6" sketch:type="MSShapeGroup"></path>
            <path d="M13.4325183,41.7635208 C15.2938386,40.4771149 16.5475306,38.094132 16.5475306,35.3711002 C16.5475306,31.6845477 15.8015648,27.9158435 10.268802,27.9158435 C4.73603912,27.9158435 3.99007335,31.6845477 3.99007335,35.3711002 C3.99007335,38.0942787 5.24376528,40.4771149 7.10508557,41.7635208 C2.98679707,42.9993154 0,46.578044 0,50.7911002 C0,52.9631296 1.10625917,54.5055257 3.28782396,55.3753056 C4.88479218,56.0119804 7.10317848,56.3084597 10.2689487,56.3084597 C13.4347188,56.3084597 15.6531051,56.0119804 17.2500733,55.3753056 C19.4316381,54.505379 20.5378973,52.9631296 20.5378973,50.7911002 C20.5378973,46.578044 17.5511002,42.9993154 13.4325183,41.7635208 L13.4325183,41.7635208 Z" id="Shape" fill="#27CAA6" sketch:type="MSShapeGroup"></path>
            <path d="M52.7643521,41.7635208 C54.6258191,40.4771149 55.8793643,38.094132 55.8793643,35.3711002 C55.8793643,31.6845477 55.1333985,27.9158435 49.6006357,27.9158435 C44.0678729,27.9158435 43.3219071,31.6845477 43.3219071,35.3711002 C43.3219071,38.0942787 44.575599,40.4771149 46.4369193,41.7635208 C42.3184841,42.9993154 39.3315403,46.578044 39.3315403,50.7911002 C39.3315403,52.9631296 40.4377995,54.5055257 42.6193643,55.3753056 C44.2163325,56.0119804 46.4347188,56.3084597 49.600489,56.3084597 C52.7662592,56.3084597 54.9846455,56.0119804 56.5816137,55.3753056 C58.7631785,54.5055257 59.8694377,52.9632763 59.8694377,50.7911002 C59.8695844,46.578044 56.8827873,42.9993154 52.7643521,41.7635208 L52.7643521,41.7635208 Z" id="Shape" fill="#27CAA6" sketch:type="MSShapeGroup"></path>
            <g id="circle" transform="translate(7.000000, 13.000000)" fill="#27CAA6" sketch:type="MSShapeGroup">
                <path d="M29.8724205,42.7854768 C29.8002445,42.60489 29.6592665,42.4602445 29.4804401,42.3835208 C29.3017604,42.3067971 29.0999022,42.3041565 28.9191687,42.3764792 C27.3420049,43.0064059 25.3845966,43.3127139 22.9348655,43.3127139 C20.4851345,43.3127139 18.5277262,43.0065526 16.9505623,42.3764792 C16.7701222,42.3043032 16.5681174,42.3069438 16.389291,42.3835208 C16.2104645,42.4602445 16.0694866,42.60489 15.9973105,42.7854768 L15.4532029,44.1477262 C15.3029829,44.5238631 15.4862103,44.9506112 15.8622005,45.1008313 C17.7917359,45.8717359 20.1053301,46.2465526 22.9348655,46.2465526 C25.764401,46.2465526 28.0779951,45.8717359 30.0075306,45.1008313 C30.3836675,44.9506112 30.5668949,44.5237164 30.4165281,44.1477262 L29.8724205,42.7854768 L29.8724205,42.7854768 Z" id="Shape"></path>
                <path d="M1.30831296,11.1918826 L2.65647922,11.7701711 C2.75080685,11.8105134 2.84894866,11.8297311 2.94547677,11.8297311 C3.22977995,11.8297311 3.5005868,11.6632274 3.6198533,11.3852323 C4.28938875,9.82449878 5.45696822,8.22386308 7.18904645,6.49178484 C8.92171149,4.7595599 10.5223472,3.59198044 12.0826406,2.92244499 C12.261467,2.84572127 12.402445,2.70122249 12.474621,2.520489 C12.5466504,2.3399022 12.5443032,2.13789731 12.4674328,1.9590709 L11.8889976,0.611051345 C11.7292421,0.238581907 11.2977995,0.0665036675 10.9257702,0.226259169 C9.01618582,1.04542787 7.11540342,2.41633252 5.11471883,4.41701711 C3.11374083,6.41784841 1.74298289,8.31877751 0.923814181,10.2285086 C0.763765281,10.6008313 0.936136919,11.0321271 1.30831296,11.1918826 L1.30831296,11.1918826 Z" id="Shape"></path>
                <path d="M33.7870905,2.92244499 C35.3475306,3.59198044 36.9481663,4.7595599 38.6806846,6.49178484 C40.4127628,8.22386308 41.5803423,9.82464548 42.2498778,11.3852323 C42.3691443,11.6632274 42.6398044,11.8297311 42.9242543,11.8297311 C43.0207824,11.8297311 43.1189242,11.8105134 43.2132518,11.7701711 L44.5612714,11.1918826 C44.9334474,11.0321271 45.1058191,10.6008313 44.9460636,10.2286553 C44.1268949,8.31892421 42.7559902,6.41784841 40.7551589,4.41716381 C38.7543276,2.41633252 36.8535452,1.04557457 34.9441076,0.226405868 C34.5720782,0.0666503667 34.1406357,0.238728606 33.9808802,0.611198044 L33.402445,1.9592176 C33.3257213,2.13804401 33.3232274,2.3399022 33.3952567,2.5206357 C33.4674328,2.70122249 33.6084108,2.84572127 33.7870905,2.92244499 L33.7870905,2.92244499 Z" id="Shape"></path>
            </g>
            <rect id="bound" sketch:type="MSShapeGroup" x="0" y="0" width="60" height="60"></rect>
        </g>
    </g>
</svg>