<?xml version="1.0" encoding="UTF-8" standalone="no"?>
<svg width="24px" height="24px" viewBox="0 0 24 24" version="1.1" xmlns="http://www.w3.org/2000/svg" xmlns:xlink="http://www.w3.org/1999/xlink" xmlns:sketch="http://www.bohemiancoding.com/sketch/ns">
    <!-- Generator: Sketch 3.4 (15575) - http://www.bohemiancoding.com/sketch -->
    <title>facebook icon</title>
    <desc>link to funa facebook account</desc>
    <defs></defs>
    <g id="Page-1" stroke="none" stroke-width="1" fill="none" fill-rule="evenodd" sketch:type="MSPage">
        <path d="M19.5000011,0 C20.7395891,0 21.799473,0.440100491 22.679688,1.32031197 C23.5598995,2.20052695 24,3.26041093 24,4.49999891 L24,19.5000011 C24,20.7395898 23.5598995,21.7994748 22.679688,22.6796877 C21.799473,23.5599002 20.7395891,24 19.5000011,24 L16.5625002,24 L16.5625002,14.7031252 L19.6718756,14.7031252 L20.1406236,11.0781263 L16.5625002,11.0781263 L16.5625002,8.76562382 C16.5625002,8.18228933 16.6848952,7.74479284 16.9296886,7.45312384 C17.1744786,7.16145835 17.6510386,7.01562385 18.3593756,7.01562385 L20.2656261,6.99999985 L20.2656261,3.76562542 C19.6093726,3.67187442 18.6822961,3.62499892 17.4843756,3.62499892 C16.0677017,3.62499892 14.9348987,4.04166342 14.0859387,4.8749994 C13.2369752,5.70833888 12.8124987,6.88540986 12.8124987,8.40625082 L12.8124987,11.0781263 L9.6874993,11.0781263 L9.6874993,14.7031252 L12.8124987,14.7031252 L12.8124987,24 L4.49999891,24 C3.26041023,24 2.2005252,23.5599002 1.32031232,22.6796877 C0.440099791,21.7994748 0,20.7395898 0,19.5000011 L0,4.49999891 C0,3.26041093 0.440099791,2.20052695 1.32031232,1.32031197 C2.2005252,0.440100491 3.26041023,0 4.49999891,0 L19.5000011,0 Z" id="facebook" fill="#FFFFFF" sketch:type="MSShapeGroup"></path>
    </g>
</svg>