<?xml version="1.0" encoding="UTF-8" standalone="no"?>
<svg width="25px" height="25px" viewBox="0 0 38 38" version="1.1" xmlns="http://www.w3.org/2000/svg" xmlns:xlink="http://www.w3.org/1999/xlink" xmlns:sketch="http://www.bohemiancoding.com/sketch/ns">
    <!-- Generator: Sketch 3.4 (15575) - http://www.bohemiancoding.com/sketch -->
    <title>funa app icon</title>
    <desc>link to our website</desc>
    <defs></defs>
    <g id="Page-1" stroke="none" stroke-width="1.5" fill="none" fill-rule="evenodd" sketch:type="MSPage">
        <g id="funa-app-icon" sketch:type="MSLayerGroup" transform="translate(1.000000, 1.000000)">
            <rect id="Rectangle-7" stroke="#FFFFFF" fill="#27CAA6" sketch:type="MSShapeGroup" x="0" y="0" width="36" height="36" rx="6.02352941"></rect>
            <path d="M5.42587033,13.5451505 C7.54112077,12.0286346 10.694028,9.99213026 14.7143351,8.04042191 C19.3729307,5.77335673 24.5212779,4.33392803 27.9285197,3.53712645 C30.036063,3.04446901 31.7078045,4.50351992 31.5627707,6.66336377 C31.3224491,10.2661403 30.8214872,15.6475293 29.8356782,19.6798919 C28.9465584,23.3156057 27.4576855,26.9975718 26.2890079,29.5841986 C25.3991874,31.5548283 23.5571889,32.9704301 22.4081294,32.4504417 C21.8385042,32.1904475 21.1707885,31.8316416 20.4210972,31.3333778 C19.5368819,30.7447117 18.7654706,30.0551314 18.1327872,29.403394 C16.9781225,28.21555 14.8951018,28.0676827 13.2310674,29.2856608 C11.567033,30.5015366 10.2175887,29.7320659 10.2175887,27.5694189 L10.2175887,24.9743826 C10.2175887,22.8117356 9.09305178,21.0870841 7.78214301,20.7121599 C7.06748403,20.5096308 6.28486239,20.1893684 5.55128597,19.6798919 C4.82051214,19.1739194 4.21305201,18.5768438 3.72890559,18.0070992 C2.84188768,16.9643193 3.66865003,14.8072786 5.42587033,13.5451505 L5.42587033,13.5451505 Z M11.1802617,27.9843183 C11.1802617,28.7068358 11.6398855,28.9310896 12.2095108,28.4874877 L16.0000059,26.7768521 C16.5696312,26.3332501 17.3599599,25.4901962 17.765634,24.8959238 L28.381823,7.65291343 C28.789599,7.05583785 28.6774956,6.95772683 28.132393,7.42865969 L12.1681727,21.2553045 C11.6209681,21.7262373 11.1802617,22.695434 11.1802617,23.4151483 L11.1802617,27.9843183 Z" id="direction10-copy-3" fill="#FFFFFF" sketch:type="MSShapeGroup"></path>
        </g>
    </g>
</svg>