<?xml version="1.0" encoding="UTF-8" standalone="no"?>
<svg width="60px" height="60px" viewBox="0 0 60 60" version="1.1" xmlns="http://www.w3.org/2000/svg" xmlns:xlink="http://www.w3.org/1999/xlink" xmlns:sketch="http://www.bohemiancoding.com/sketch/ns">
    <!-- Generator: Sketch 3.4.2 (15857) - http://www.bohemiancoding.com/sketch -->
    <title>geopin</title>
    <desc>Created with Sketch.</desc>
    <defs></defs>
    <g id="Page-1" stroke="none" stroke-width="1" fill="none" fill-rule="evenodd" sketch:type="MSPage">
        <g id="geopin" sketch:type="MSLayerGroup">
            <path d="M45.54875,15.8075 C45.54875,7.15875 38.53875,0.14875 29.88875,0.14875 C21.23875,0.14875 14.23,7.15875 14.23,15.8075 C14.23,28.19875 29.88875,46.535 29.88875,46.535 C29.88875,46.535 45.54875,28.135 45.54875,15.8075 L45.54875,15.8075 Z M22.16625,14.8725 C22.16625,10.60625 25.625,7.14875 29.89,7.14875 C34.155,7.14875 37.61375,10.60625 37.61375,14.8725 C37.61375,19.13875 34.155,22.59625 29.89,22.59625 C25.625,22.59625 22.16625,19.13875 22.16625,14.8725 L22.16625,14.8725 Z" id="pin" fill="#27CAA6" sketch:type="MSShapeGroup"></path>
            <path d="M38.7425,41.0875 C37.46625,42.9325 36.26875,44.53875 35.27125,45.82875 C45.16625,46.42375 51.65125,48.56 54.06375,50.14875 C51.2375,52.0125 42.84,54.6325 29.89125,54.6325 C16.94375,54.6325 8.545,52.01125 5.71875,50.14875 C8.13125,48.56 14.61125,46.425 24.49625,45.83 C23.49625,44.54 22.2975,42.935 21.02,41.09 C8.84375,42.28875 0,45.89125 0,50.1475 C0,55.385 13.38375,59.6325 29.89125,59.6325 C46.4,59.6325 59.78125,55.3875 59.78125,50.1475 C59.78375,45.88875 50.93,42.285 38.7425,41.0875 L38.7425,41.0875 Z" id="geo" fill="#27CAA6" sketch:type="MSShapeGroup"></path>
            <rect id="bound" sketch:type="MSShapeGroup" x="0" y="0" width="60" height="60"></rect>
        </g>
    </g>
</svg>