<?xml version="1.0" encoding="UTF-8" standalone="no"?>
<svg width="169px" height="52px" viewBox="0 0 169 52" version="1.1" xmlns="http://www.w3.org/2000/svg" xmlns:xlink="http://www.w3.org/1999/xlink" xmlns:sketch="http://www.bohemiancoding.com/sketch/ns">
    <!-- Generator: Sketch 3.4 (15575) - http://www.bohemiancoding.com/sketch -->
    <title>googleplay icon</title>
    <desc>link to funa google play page</desc>
    <defs>
        <linearGradient x1="19.2147947%" y1="-35.1571758%" x2="69.3023416%" y2="93.5367562%" id="linearGradient-1">
            <stop stop-color="#19A3B4" offset="0%"></stop>
            <stop stop-color="#5BC3AF" offset="34.816763%"></stop>
            <stop stop-color="#C9F7A6" offset="92.2336229%"></stop>
            <stop stop-color="#D7FEA5" offset="100%"></stop>
        </linearGradient>
        <path id="path-2" d="M22.4318351,11.1860931 L2.74845943,0.334482161 C2.19034712,0.0283209602 1.6755923,-0.0429008297 1.25862244,0.0875182921 L17.3811494,16.2511648 L22.4318351,11.1860931"></path>
        <linearGradient x1="-14.698314%" y1="-114.321644%" x2="74.8444046%" y2="114.156353%" id="linearGradient-4">
            <stop stop-color="#FC227C" offset="0%"></stop>
            <stop stop-color="#FEEB7B" offset="100%"></stop>
        </linearGradient>
        <linearGradient x1="28.1511582%" y1="-14.8137139%" x2="48.1878808%" y2="82.8944571%" id="linearGradient-5">
            <stop stop-color="#0E4DA0" offset="0%"></stop>
            <stop stop-color="#6BFED4" offset="100%"></stop>
        </linearGradient>
        <path id="path-6" d="M1.25769994,0.0875182921 C0.658997651,0.275284829 0.271547785,0.882982439 0.271547785,1.802391 L0.275237784,30.7387868 C0.275237784,31.6480208 0.650695154,32.2464688 1.23186995,32.4462598 L17.3811494,16.2539396 L1.25769994,0.0875182921"></path>
        <linearGradient x1="132.244588%" y1="16.465744%" x2="5.95853392%" y2="126.310354%" id="linearGradient-8">
            <stop stop-color="#FC472E" offset="0%"></stop>
            <stop stop-color="#FC472E" offset="0.331892433%"></stop>
            <stop stop-color="#893CD8" offset="100%"></stop>
        </linearGradient>
        <path id="path-9" d="M1.23186995,32.4462598 C1.65160731,32.5887034 2.17650963,32.5221064 2.74845943,32.2076206 L22.4548976,21.3412103 L17.3811494,16.2539396 L1.23186995,32.4462598"></path>
    </defs>
    <g id="Page-1" stroke="none" stroke-width="1" fill="none" fill-rule="evenodd" sketch:type="MSPage">
        <g id="googleplay" sketch:type="MSLayerGroup">
            <rect id="background" fill="#050708" sketch:type="MSShapeGroup" x="0" y="0" width="169" height="52" rx="5.2"></rect>
            <g id="icon" transform="translate(11.400000, 10.400000)">
                <mask id="mask-3" sketch:name="Fill 1" fill="white">
                    <use xlink:href="#path-2"></use>
                </mask>
                <use id="Fill-1" fill="url(#linearGradient-1)" sketch:type="MSShapeGroup" xlink:href="#path-2"></use>
                <path d="M22.4576651,21.3412103 L29.1771528,17.6367523 C30.5396848,16.8829113 30.5396848,15.6564166 29.1771528,14.9044255 L22.4327576,11.1860931 L17.3811494,16.2511648 L22.4576651,21.3412103" id="Fill-2" fill="url(#linearGradient-4)" sketch:type="MSShapeGroup"></path>
                <mask id="mask-7" sketch:name="Fill 3" fill="white">
                    <use xlink:href="#path-6"></use>
                </mask>
                <use id="Fill-3" fill="url(#linearGradient-5)" sketch:type="MSShapeGroup" xlink:href="#path-6"></use>
                <mask id="mask-10" sketch:name="Fill 4" fill="white">
                    <use xlink:href="#path-9"></use>
                </mask>
                <use id="Fill-4" fill="url(#linearGradient-8)" sketch:type="MSShapeGroup" xlink:href="#path-9"></use>
            </g>
            <g id="get-it-on-google-play" transform="translate(50.700000, 10.100000)" fill="#FFFFFF" sketch:type="MSShapeGroup">
                <g id="google-play" transform="translate(0.000000, 14.600000)">
                    <path d="M78.7914301,1.55915217 L79.9409527,1.55915217 L79.9409527,16.2795326 L78.7914301,16.2795326 L78.7914301,1.55915217 Z" id="Fill-1"></path>
                    <path d="M90.1051532,14.5308913 L90.1051532,8.61730435 C90.1051532,8.61730435 90.0245656,5.40514565 86.1120745,5.40514565 C82.1995833,5.40514565 82.0887451,8.42654348 82.0887451,8.42654348 L83.3290196,8.42247391 C83.3290196,8.42247391 83.2685184,6.35996739 86.0818239,6.35996739 C88.8951294,6.35996739 88.8648788,8.74447826 88.8648788,8.74447826 L88.8648788,10.1711152 L86.5658334,10.1751848 C83.2837647,10.1751848 81.6652368,11.494487 81.6652368,13.3545326 C81.6652368,15.2143239 82.6485021,16.5338804 85.0533036,16.5338804 C87.458347,16.5338804 88.8043776,14.7534457 88.8043776,14.7534457 C88.8043776,15.4846957 89.1673847,16.2795326 89.1673847,16.2795326 L90.498411,16.2795326 C90.498411,16.2795326 90.1051532,15.3732913 90.1051532,14.5308913 L90.1051532,14.5308913 Z M88.8648788,12.4164978 C88.8648788,14.5629391 86.3995761,15.5004652 85.1593017,15.5004652 C83.9190272,15.5004652 82.8905069,14.8806196 82.8905069,13.449913 C82.8905069,12.0192065 84.5087928,11.0811717 86.4750816,11.0811717 L88.8648788,11.0811717 L88.8648788,12.4164978 L88.8648788,12.4164978 Z" id="Fill-2"></path>
                    <path d="M91.2950907,5.66051087 L92.5051146,5.66051087 L96.2561885,14.7112239 L99.9065885,5.66051087 L101.277788,5.66051087 C101.277788,5.66051087 96.4984353,17.4770022 96.0545986,18.5897739 C95.6107618,19.7025457 94.5519909,20.7306196 93.2514573,20.7306196 C92.6662897,20.7306196 92.0816062,20.3702087 92.0816062,20.3702087 L92.4044406,19.4164043 C92.4044406,19.4164043 92.6970243,19.5860543 93.2715437,19.5860543 C93.846063,19.5860543 94.8445747,18.1871413 94.8445747,18.1871413 L95.570589,16.3642304 L91.2950907,5.66051087" id="Fill-3"></path>
                    <path d="M72.753653,5.40514565 C70.6061026,5.40514565 69.1673842,7.25679783 69.1272115,7.30868478 L69.1272115,5.66051087 L67.9779308,5.66051087 L67.9779308,20.3490978 L69.1272115,20.3490978 L69.1272115,14.53725 C69.1669002,14.606687 70.2883504,16.5338804 72.7839036,16.5338804 C75.3249537,16.5338804 77.2912425,14.8170326 77.2912425,10.8845609 C77.2912425,6.95208913 74.9316959,5.40514565 72.753653,5.40514565 L72.753653,5.40514565 Z M72.5721494,15.5482826 C70.4870363,15.5482826 69.1673842,13.3026457 69.1272115,13.2337174 L69.1272115,8.64350217 C69.1676263,8.58652826 70.6934663,6.42355435 72.7234024,6.42355435 C74.5686888,6.42355435 76.1114692,8.39475 76.1114692,10.969513 C76.1114692,13.5442761 74.6896912,15.5482826 72.5721494,15.5482826 L72.5721494,15.5482826 Z" id="Fill-4"></path>
                    <path d="M13.9980401,2.59841739 C13.9980401,2.59841739 12.318769,0.803484783 8.12071217,0.803484783 C3.00932936,0.803484783 0.0392047733,4.92926087 0.0392047733,8.83629783 C0.0392047733,12.2511717 2.28500907,16.5633848 7.8687852,16.5633848 C10.7551761,16.5633848 13.9980401,15.4473065 13.9980401,15.4473065 L13.9980401,12.7982739 C13.9980401,11.4962674 14.8377967,11.0473435 14.8377967,11.0473435 L10.3667585,11.0473435 L8.79227542,11.9668109 C9.63735609,11.7424761 11.8780783,11.7696913 11.8780783,11.7696913 L11.8780783,15.0530674 C11.8780783,15.0530674 10.8861007,15.6439174 9.38034702,15.6439174 C5.0242611,15.6439174 2.20127542,11.6275109 2.20127542,7.96108696 C2.20127542,3.48507391 5.24472745,1.59145435 7.88959761,1.59145435 C10.5347098,1.59145435 12.0247332,3.64912826 12.0247332,3.64912826 L11.5419337,4.48084565 L12.318769,4.26210652 L13.9980401,2.59841739" id="Fill-5"></path>
                    <path d="M21.1040263,5.44736739 C18.1077652,5.44736739 15.666663,7.7331913 15.666663,11.0692174 C15.666663,13.471787 17.5088033,16.3642304 20.7710277,16.3642304 C24.033736,16.3642304 26.3201971,14.0786609 26.3201971,10.8593804 C26.3201971,7.6401 24.1005294,5.44736739 21.1040263,5.44736739 L21.1040263,5.44736739 Z M21.3259446,15.6642652 C18.8533819,15.6642652 17.6861928,11.6521826 17.6861928,9.6227413 C17.6861928,7.5933 18.9956807,6.14707826 20.5048224,6.14707826 C22.6576969,6.14707826 24.1445742,8.81696739 24.1445742,11.9322196 C24.1445742,13.0050587 23.7987494,15.6642652 21.3259446,15.6642652 L21.3259446,15.6642652 Z" id="Fill-6"></path>
                    <path d="M32.7628482,5.45296304 C29.7680391,5.45296304 27.327905,7.73776957 27.327905,11.0717609 C27.327905,13.473313 29.1690773,16.3642304 32.4300916,16.3642304 C35.691106,16.3642304 37.976115,14.0796783 37.976115,10.8621783 C37.976115,7.64467826 35.7578993,5.45296304 32.7628482,5.45296304 L32.7628482,5.45296304 Z M32.9845246,15.6647739 C30.5134138,15.6647739 29.3464668,11.6544717 29.3464668,9.62604783 C29.3464668,7.59787826 30.6557126,6.15216522 32.1638864,6.15216522 C34.3160348,6.15216522 35.8021862,8.82103696 35.8021862,11.9342543 C35.8021862,13.0068391 35.4563613,15.6647739 32.9845246,15.6647739 L32.9845246,15.6647739 Z" id="Fill-7"></path>
                    <path d="M46.5796267,15.5905043 C45.5102076,14.8147435 45.3008735,14.44365 45.3008735,14.1076565 C45.3008735,13.7719174 45.3120057,13.4997652 46.0726267,12.7410457 C46.8330057,11.9818174 47.5280434,11.1882522 47.5280434,9.75169565 C47.5280434,7.61975217 46.1609585,6.66976304 46.1609585,6.66976304 L47.4614921,6.62372609 L48.7620258,5.81235652 L43.6917838,5.81235652 C41.0902325,5.81235652 39.1280578,7.9214087 39.1280578,10.1919717 C39.1280578,11.7905478 40.4177012,13.7019717 42.9640754,13.7019717 C43.2285866,13.7019717 43.4050081,13.6442348 43.4050081,13.6442348 C43.4050081,13.6442348 43.2510931,13.9977783 43.2510931,14.46705 C43.2510931,15.2318739 43.8788535,15.9153065 43.8788535,15.9153065 C43.8788535,15.9153065 38.0034616,15.9211565 38.0034616,19.8772826 C38.0034616,22.2694239 40.5718582,23.1675261 42.6775418,23.1675261 C44.7832253,23.1675261 48.3874024,21.9746348 48.3874024,18.9270391 C48.3874024,17.4734413 47.6492878,16.3670283 46.5796267,15.5905043 L46.5796267,15.5905043 Z M43.7907637,13.0070935 C42.2533074,13.0070935 41.0294893,10.5918065 41.0294893,9.13185 C41.0294893,7.67189348 41.723801,6.62906739 42.9473771,6.62906739 C44.1711952,6.62906739 45.6258859,8.10631957 45.6258859,10.8001174 C45.6258859,11.7384065 45.3289461,13.0070935 43.7907637,13.0070935 L43.7907637,13.0070935 Z M43.6753274,22.1826913 C42.9640754,22.1826913 39.9382897,21.8873935 39.9382897,19.3675696 C39.9382897,16.848 43.4265465,16.6129826 43.8316625,16.6129826 C44.2372625,16.6129826 44.5840554,16.6742804 44.5840554,16.6742804 C45.6595246,17.6731043 46.8497041,18.1688283 46.8497041,19.7323043 C46.8497041,21.9746348 44.3858535,22.1826913 43.6753274,22.1826913 L43.6753274,22.1826913 Z" id="Fill-8"></path>
                    <path d="M48.5025967,0.845706522 L49.9529313,0.0142434783 L53.13481,0.0142434783 C52.3933074,0.429847826 52.1157279,0.759228261 52.0966095,2.69964783 C52.0772492,4.6395587 51.9809313,14.5224978 51.9809313,14.5224978 C51.9809313,15.2621413 52.5929613,15.4625674 53.1444902,15.4625674 C53.6464081,15.4625674 53.8765547,15.5650696 53.8765547,15.5650696 L53.2011193,16.059013 L49.3430792,16.059013 C49.3430792,16.059013 49.8970282,15.5386174 49.9038043,15.0194935 L50.1017642,0.850284783 L48.5025967,0.845706522" id="Fill-9"></path>
                    <path d="M62.5732382,8.28512609 C62.5732382,8.28512609 62.0384076,5.40514565 58.7853795,5.40514565 C55.5325933,5.40514565 53.8388019,8.09818043 53.8388019,10.7441609 C53.8388019,13.389887 55.3317294,16.3642304 59.0525527,16.3642304 C61.6594282,16.3642304 62.8404115,14.3269043 62.8404115,14.3269043 C62.8404115,14.3269043 61.5926348,15.0998674 60.2110296,15.0998674 C58.1394687,15.0998674 55.7327313,12.8046326 55.7327313,9.43299783 C55.7327313,7.16116304 57.239695,6.24805435 58.1839976,6.24805435 C60.077927,6.24805435 60.4227838,8.03942609 60.2562845,8.35558043 C60.0890592,8.67173478 55.7997666,10.5099065 55.7997666,10.5099065 L57.5153384,10.4160522 L62.5732382,8.28512609" id="Fill-10"></path>
                </g>
                <path d="M7.657,4.398 L4.771,4.398 L4.771,5.308 L6.552,5.308 L6.552,7.921 C6.292,8.051 5.785,8.155 5.044,8.155 C3.003,8.155 1.664,6.842 1.664,4.619 C1.664,2.422 3.055,1.096 5.187,1.096 C6.071,1.096 6.656,1.265 7.124,1.473 L7.397,0.55 C7.02,0.368 6.227,0.147 5.213,0.147 C2.275,0.147 0.481,2.058 0.468,4.671 C0.468,6.036 0.936,7.206 1.69,7.934 C2.548,8.753 3.64,9.091 4.966,9.091 C6.149,9.091 7.15,8.792 7.657,8.61 L7.657,4.398 Z M14.469,6.062 C14.482,5.945 14.508,5.763 14.508,5.529 C14.508,4.372 13.962,2.565 11.908,2.565 C10.075,2.565 8.957,4.06 8.957,5.958 C8.957,7.856 10.114,9.13 12.051,9.13 C13.052,9.13 13.741,8.922 14.144,8.74 L13.949,7.921 C13.52,8.103 13.026,8.246 12.207,8.246 C11.063,8.246 10.075,7.609 10.049,6.062 L14.469,6.062 Z M10.062,5.243 C10.153,4.45 10.66,3.384 11.817,3.384 C13.104,3.384 13.416,4.515 13.403,5.243 L10.062,5.243 Z M16.185,1.2 L16.185,2.708 L15.21,2.708 L15.21,3.579 L16.185,3.579 L16.185,7.011 C16.185,7.752 16.302,8.311 16.627,8.649 C16.9,8.961 17.329,9.13 17.862,9.13 C18.304,9.13 18.655,9.065 18.876,8.974 L18.824,8.116 C18.681,8.155 18.46,8.194 18.161,8.194 C17.524,8.194 17.303,7.752 17.303,6.972 L17.303,3.579 L18.941,3.579 L18.941,2.708 L17.303,2.708 L17.303,0.901 L16.185,1.2 Z M23.959,9 L23.959,2.708 L22.815,2.708 L22.815,9 L23.959,9 Z M23.387,0.225 C22.971,0.225 22.672,0.537 22.672,0.94 C22.672,1.33 22.958,1.642 23.361,1.642 C23.816,1.642 24.102,1.33 24.089,0.94 C24.089,0.537 23.816,0.225 23.387,0.225 L23.387,0.225 Z M26.117,1.2 L26.117,2.708 L25.142,2.708 L25.142,3.579 L26.117,3.579 L26.117,7.011 C26.117,7.752 26.234,8.311 26.559,8.649 C26.832,8.961 27.261,9.13 27.794,9.13 C28.236,9.13 28.587,9.065 28.808,8.974 L28.756,8.116 C28.613,8.155 28.392,8.194 28.093,8.194 C27.456,8.194 27.235,7.752 27.235,6.972 L27.235,3.579 L28.873,3.579 L28.873,2.708 L27.235,2.708 L27.235,0.901 L26.117,1.2 Z M35.581,2.565 C33.839,2.565 32.461,3.8 32.461,5.906 C32.461,7.895 33.774,9.143 35.477,9.143 C36.998,9.143 38.61,8.129 38.61,5.802 C38.61,3.878 37.388,2.565 35.581,2.565 L35.581,2.565 Z M35.555,3.423 C36.907,3.423 37.44,4.775 37.44,5.841 C37.44,7.258 36.621,8.285 35.529,8.285 C34.411,8.285 33.618,7.245 33.618,5.867 C33.618,4.671 34.203,3.423 35.555,3.423 L35.555,3.423 Z M40.053,9 L41.197,9 L41.197,5.217 C41.197,5.022 41.223,4.827 41.275,4.684 C41.47,4.047 42.055,3.514 42.809,3.514 C43.888,3.514 44.265,4.359 44.265,5.373 L44.265,9 L45.409,9 L45.409,5.243 C45.409,3.085 44.057,2.565 43.186,2.565 C42.146,2.565 41.418,3.15 41.106,3.748 L41.08,3.748 L41.015,2.708 L40.001,2.708 C40.04,3.228 40.053,3.761 40.053,4.411 L40.053,9 Z" id="Get-it-on"></path>
            </g>
        </g>
    </g>
</svg>