<?xml version="1.0" encoding="UTF-8" standalone="no"?>
<svg width="60px" height="58px" viewBox="0 0 60 58" version="1.1" xmlns="http://www.w3.org/2000/svg" xmlns:xlink="http://www.w3.org/1999/xlink" xmlns:sketch="http://www.bohemiancoding.com/sketch/ns">
    <!-- Generator: Sketch 3.4.2 (15857) - http://www.bohemiancoding.com/sketch -->
    <title>history</title>
    <desc>Created with Sketch.</desc>
    <defs></defs>
    <g id="Page-1" stroke="none" stroke-width="1" fill="none" fill-rule="evenodd" sketch:type="MSPage">
        <g id="history" sketch:type="MSLayerGroup" transform="translate(0.000000, -1.000000)">
            <path d="M31.5,1.08823529 C21,1.08823529 11.7,6.78823529 6.9,15.4882353 L0,8.58823529 L0,28.0882353 L19.5,28.0882353 L11.1,19.6882353 C15,12.1882353 22.5,7.08823529 31.5,7.08823529 C43.8,7.08823529 54,17.2882353 54,29.5882353 C54,41.8882353 43.8,52.0882353 31.5,52.0882353 C21.6,52.0882353 13.5,45.7882353 10.2,37.0882353 L3.9,37.0882353 C7.2,49.0882353 18.3,58.0882353 31.5,58.0882353 C47.4,58.0882353 60,45.1882353 60,29.5882353 C60,13.9882353 47.1,1.08823529 31.5,1.08823529 L31.5,1.08823529 Z M27,16.0882353 L27,31.3882353 L41.1,39.7882353 L43.5,35.8882353 L31.5,28.6882353 L31.5,16.0882353 L27,16.0882353 L27,16.0882353 Z" id="Shape" fill="#27CAA6" sketch:type="MSShapeGroup"></path>
            <rect id="bound" sketch:type="MSShapeGroup" x="0" y="0" width="60" height="60"></rect>
        </g>
    </g>
</svg>