<?xml version="1.0" encoding="UTF-8" standalone="no"?>
<svg width="24px" height="24px" viewBox="0 0 24 24" version="1.1" xmlns="http://www.w3.org/2000/svg" xmlns:xlink="http://www.w3.org/1999/xlink" xmlns:sketch="http://www.bohemiancoding.com/sketch/ns">
    <!-- Generator: Sketch 3.4 (15575) - http://www.bohemiancoding.com/sketch -->
    <title>twitter icon</title>
    <desc>link to funa twitter account</desc>
    <defs></defs>
    <g id="Page-1" stroke="none" stroke-width="1" fill="none" fill-rule="evenodd" sketch:type="MSPage">
        <path d="M20.0000006,7.53125084 C19.4166626,7.79166834 18.7864596,7.96875083 18.1093741,8.06250183 C18.8177111,7.64583034 19.3020831,7.03646285 19.5625006,6.23437487 C18.8854116,6.63021086 18.1875046,6.89583286 17.4687481,7.03125135 C16.8333301,6.34374637 16.0364642,6.00000087 15.0781257,6.00000087 C14.1718707,6.00000087 13.3984407,6.32031037 12.7578112,6.96093635 C12.1171852,7.60156584 11.7968758,8.37499583 11.7968758,9.28125081 C11.7968758,9.5833358 11.8229158,9.8333338 11.8749993,10.0312518 C10.5312443,9.95833279 9.27083831,9.6197953 8.09374983,9.01562531 C6.91666136,8.41145532 5.91666938,7.60417334 5.09374939,6.59375136 C4.7916644,7.11458635 4.6406254,7.66666584 4.6406254,8.25000033 C4.6406254,9.4375048 5.11457789,10.3489538 6.06250037,10.9843753 C5.57291338,10.9739593 5.05208539,10.8385443 4.49999891,10.5781268 L4.49999891,10.6093748 C4.49999891,11.3906308 4.7604129,12.0859337 5.28125139,12.6953117 C5.80208638,13.3046897 6.44270537,13.6822907 7.20312585,13.8281252 C6.90104086,13.9114602 6.63541886,13.9531242 6.40624937,13.9531242 C6.27083087,13.9531242 6.06770837,13.9322922 5.79687488,13.8906247 C6.01562487,14.5468782 6.40364187,15.0885382 6.96093635,15.5156257 C7.51823084,15.9427097 8.15103783,16.1614597 8.85937482,16.1718757 C7.65103484,17.1093786 6.29167337,17.5781266 4.7812484,17.5781266 C4.51041491,17.5781266 4.25000091,17.5624991 3.99999942,17.5312511 C5.54167588,18.5104216 7.21873935,19.0000016 9.03124931,19.0000016 C10.1979218,19.0000016 11.2916613,18.8151071 12.3124992,18.4453111 C13.3333372,18.0755186 14.2083302,17.5807341 14.9374992,16.9609366 C15.6666717,16.3411427 16.2942672,15.6276082 16.8203136,14.8203122 C17.3463566,14.0130162 17.7369776,13.1692747 17.9921871,12.2890632 C18.2473966,11.4088518 18.3749996,10.5312548 18.3749996,9.6562513 C18.3749996,9.4687493 18.3697916,9.32812631 18.3593756,9.23437531 C19.0156291,8.76562382 19.5624971,8.19792033 20.0000006,7.53125084 L20.0000006,7.53125084 Z M24,4.49999891 L24,19.5000011 C24,20.7395898 23.5598995,21.7994748 22.679688,22.6796877 C21.799473,23.5599002 20.7395891,24 19.5000011,24 L4.49999891,24 C3.26041023,24 2.2005252,23.5599002 1.32031232,22.6796877 C0.440099791,21.7994748 0,20.7395898 0,19.5000011 L0,4.49999891 C0,3.26041093 0.440099791,2.20052695 1.32031232,1.32031197 C2.2005252,0.440100491 3.26041023,0 4.49999891,0 L19.5000011,0 C20.7395891,0 21.799473,0.440100491 22.679688,1.32031197 C23.5598995,2.20052695 24,3.26041093 24,4.49999891 L24,4.49999891 Z" id="twitter" fill="#FFFFFF" sketch:type="MSShapeGroup"></path>
    </g>
</svg>